<svg width="220" height="220" viewBox="0 0 220 220" fill="none" xmlns="http://www.w3.org/2000/svg">
  <g fill="#172C57">
    <path d="M158.8 33.9C134.4 17.8 102.7 12.9 72.5 20.5C37.3 29.3 9.5 57.6 2.1 93.1C-1.4 109.8 -0.1 126.4 5.1 141.7H19.9C13.5 126.2 11.7 109.2 15.3 92.2C22.1 60.3 47.1 34.9 78.7 27C106.1 20.1 134.8 24.5 157 39.1C165.6 44.7 173.1 51.8 179.1 59.9C173.8 49.4 166.9 40.7 158.8 33.9Z"/>
    <path d="M188.7 67.8C170.1 92.9 143.5 112 112.6 126.7C83.2 140.7 51.2 149.5 20 152.8L34.7 161.1C64.4 156.6 94.6 147.3 122.4 134C149.2 121.2 172.7 104.9 190.4 83.9C189.9 78.4 189.3 72.9 188.7 67.8Z"/>
    <path d="M193.1 74.9C188.7 86.8 181.9 98.3 173 109.2C151.1 135.9 119.7 157.8 83.4 172.4C75.8 175.4 73.4 184.9 78.7 191.2C81.8 194.9 86.8 197 92.2 197H101.5C140.4 197 175 173.6 193.3 137.4C205.9 112.5 205.8 85.3 193.1 74.9Z"/>
    <path d="M178.5 60.9C164.2 78.2 145.4 93.4 123 106.6C95.5 122.9 64.7 133.9 33 139L12.4 134.4C46.9 131.9 82.7 122.1 115.5 106.4C139.8 94.8 160.7 80.6 176.9 64.7L178.5 60.9Z"/>
    <circle cx="193.5" cy="58.5" r="8.5"/>
  </g>
</svg>
